HIERARCHY
ROOT Hips
{
  OFFSET 0 0 0
  CHANNELS 6 Xposition Yposition Zposition Zrotation Yrotation Xrotation
  JOINT LeftThigh
  {
    OFFSET 8.409438 0 -5.917753
    CHANNELS 3 Zrotation Yrotation Xrotation
    JOINT LeftLeg
    {
      OFFSET 0 0 -42.358652
      CHANNELS 3 Zrotation Yrotation Xrotation
      JOINT LeftFoot
      {
        OFFSET 0 0 -39.357303
        CHANNELS 3 Zrotation Yrotation Xrotation
      }
    }
  }
  JOINT RightThigh
  {
    OFFSET -8.409438 0 -5.917753
    CHANNELS 3 Zrotation Yrotation Xrotation
    JOINT RightLeg
    {
      OFFSET 0 0 -42.358652
      CHANNELS 3 Zrotation Yrotation Xrotation
      JOINT RightFoot
      {
        OFFSET 0 0 -39.357303
        CHANNELS 3 Zrotation Yrotation Xrotation
      }
    }
  }
  JOINT SpineLow
  {
    OFFSET 0 0 4.719101
    CHANNELS 3 Zrotation Yrotation Xrotation
    JOINT SpineMid
    {
      OFFSET 0 0 12.899191
      CHANNELS 3 Zrotation Yrotation Xrotation
      JOINT Chest
      {
        OFFSET 0 0 12.899191
        CHANNELS 3 Zrotation Yrotation Xrotation
        JOINT LeftShoulder
        {
          OFFSET 7.550562 1.41573 9.438202
          CHANNELS 3 Zrotation Yrotation Xrotation
          JOINT LeftArm
          {
            OFFSET 9.155056 0 4.247191
            CHANNELS 3 Zrotation Yrotation Xrotation
            JOINT LeftForearm
            {
              OFFSET 0 0 25.771955
              CHANNELS 3 Zrotation Yrotation Xrotation
              JOINT LeftHand
              {
                OFFSET 0 0 25.197169
                CHANNELS 3 Zrotation Yrotation Xrotation
              }
            }
          }
        }
        JOINT RightShoulder
        {
          OFFSET -7.550562 1.41573 9.438202
          CHANNELS 3 Zrotation Yrotation Xrotation
          JOINT RightArm
          {
            OFFSET -9.155056 0 4.247191
            CHANNELS 3 Zrotation Yrotation Xrotation
            JOINT RightForearm
            {
              OFFSET 0 0 -25.771955
              CHANNELS 3 Zrotation Yrotation Xrotation
              JOINT RightHand
              {
                OFFSET 0 0 -25.197169
                CHANNELS 3 Zrotation Yrotation Xrotation
              }
            }
          }
        }
        JOINT Neck
        {
          OFFSET 0 0 15.101124
          CHANNELS 3 Zrotation Yrotation Xrotation
          JOINT Head
          {
            OFFSET 0 0 11.325843
            CHANNELS 3 Zrotation Yrotation Xrotation
            End Site
            {
              OFFSET 0 0 14.157303
            }
          }
        }
      }
    }
  }
}
MOTION
Frames: 10
Frame Time: 0.01
0.0  101.685394  0.0  -2.928067  38.505789  -103.298306  15.341206  -23.154287  -11.036055  -19.508183  18.411763  37.428723  2.551604  4.606709  1.945702  -23.855756  18.006099  -2.62984  -8.580233  5.764298  36.774387  2.473651  8.302696  -3.231643  -1.315292  1.385013  1.328581  -3.521504  3.855512  3.55864  -3.521504  3.855512  3.55864  -1.702225  17.778659  31.41417  157.274893  86.243995  -112.061226  -54.498865  -16.646344  71.267832  53.847858  14.579501  34.816312  19.487853  -21.747689  14.267965  129.132807  72.282935  56.368417  -18.106963  -27.078884  -116.361024  77.941039  -6.246771  40.514186  -1.080203  -6.731086  -1.444834  -0.825201  -5.045816  -1.094325  
0.0  101.685394  0.0  -3.146691  37.907092  -103.429381  15.816182  -23.187587  -11.256953  -19.601732  18.213538  38.070097  2.447999  4.767173  1.792421  -23.693959  17.758682  -3.329453  -8.534712  6.127908  37.828375  3.023115  8.318921  -3.276487  -1.289547  1.356411  1.358768  -3.450764  3.777567  3.644114  -3.450764  3.777567  3.644114  -2.435736  18.146334  31.168105  167.119312  86.791016  -103.271087  -54.798375  -15.110891  71.242021  53.689589  15.660076  33.983769  19.500633  -21.802639  14.15916  130.080598  72.32434  57.021604  -18.507147  -26.88397  -115.97385  78.226086  -6.711157  40.079121  -1.064708  -6.844196  -1.523337  -0.814716  -5.130554  -1.153117  
0.0  101.685394  0.0  -3.333179  37.083187  -103.476329  16.221896  -23.168558  -11.323265  -19.981914  18.174605  38.303418  2.801786  4.974495  1.793424  -23.520373  17.44128  -4.020796  -8.527167  6.538565  38.553475  3.946135  8.419343  -3.21124  -1.222662  1.324647  1.395302  -3.267392  3.688934  3.749363  -3.267392  3.688934  3.749363  -3.418782  18.461631  30.815506  -179.462782  87.207969  -91.043234  -55.254759  -13.375979  71.218972  53.413325  16.735968  32.785165  19.445787  -21.908997  13.949717  130.951688  72.250427  57.503499  -18.810685  -26.641529  -115.584246  78.330332  -7.087157  39.542359  -1.095512  -6.978217  -1.669146  -0.839765  -5.230742  -1.262875  
0.0  101.685394  0.0  -3.530983  36.169455  -103.462501  16.636471  -23.104126  -11.197534  -20.477858  18.004784  38.256605  3.368648  5.136195  1.809044  -23.482671  17.041659  -4.715292  -8.270869  6.806188  39.029987  4.69977  8.470246  -3.108723  -1.16685  1.281713  1.403021  -3.116619  3.56888  3.775485  -3.116619  3.56888  3.775485  -4.323397  18.772062  30.507622  -165.823216  87.478417  -78.612694  -55.862538  -11.578953  71.227466  53.018637  17.838742  31.356785  19.458975  -22.133623  13.841952  131.556226  72.111959  57.87383  -18.877717  -26.320017  -115.279984  78.396033  -7.438815  38.868595  -1.079162  -7.083024  -1.7468  -0.828682  -5.30926  -1.320995  
0.0  101.685394  0.0  -3.770504  35.076623  -103.442298  17.151389  -23.15058  -10.916331  -21.203259  17.88256  37.842169  4.1597  5.277125  1.907813  -23.455393  16.534811  -5.41252  -7.619239  6.813698  39.388886  5.24615  8.534752  -2.997158  -1.127213  1.213397  1.390641  -3.012561  3.379466  3.746644  -3.012561  3.379465  3.746644  -5.122674  19.071868  30.145742  -156.788907  87.50617  -70.770954  -56.283278  -9.907158  71.243083  52.398705  18.813605  29.730458  19.673216  -22.463124  13.741612  131.742546  71.735228  57.909984  -18.892336  -25.634905  -114.771054  78.385441  -7.349536  37.771278  -0.949967  -7.104524  -1.756893  -0.732083  -5.325734  -1.327073  
0.0  101.685394  0.0  -3.958936  33.803424  -103.141667  17.739408  -23.172847  -10.685974  -21.824999  17.682005  37.198157  4.991793  5.361428  2.082136  -23.486648  15.892068  -6.376301  -6.543111  6.524454  39.639067  5.40296  8.556741  -2.886217  -1.100937  1.122515  1.363093  -2.946933  3.128511  3.676391  -2.946933  3.128511  3.676391  -6.018104  19.373472  29.607201  -149.224691  87.153796  -64.679498  -56.249382  -8.213209  71.280907  51.442301  19.560662  27.994435  20.160165  -22.768571  13.471298  131.429578  71.147613  57.532716  -19.035784  -24.284131  -113.889691  78.400296  -6.664396  36.091477  -0.719652  -7.007459  -1.817515  -0.560002  -5.253521  -1.369721  
0.0  101.685394  0.0  -3.973364  31.966984  -102.778743  18.357121  -23.221296  -10.114646  -21.828085  17.217786  36.471278  5.612676  5.408509  2.294307  -23.150531  15.211358  -7.2858  -5.147726  6.135447  39.619519  5.41452  8.481289  -2.726204  -1.029966  1.019835  1.373541  -2.757893  2.844519  3.712312  -2.757893  2.844519  3.712312  -7.089208  19.670383  28.713338  -144.884931  86.402998  -62.381834  -55.710231  -6.215214  71.387223  50.294593  20.036002  26.214021  20.865196  -22.960834  13.10306  130.611043  70.437525  56.721654  -19.307384  -21.665158  -112.6423  78.259911  -5.437133  34.170761  -0.361256  -6.772426  -1.977653  -0.292636  -5.078217  -1.485529  
0.0  101.685394  0.0  -3.834775  29.227235  -102.456784  19.029369  -23.408066  -9.090516  -20.949367  16.509863  35.731151  6.096423  5.441227  2.498109  -22.148994  14.481916  -7.939359  -3.626831  5.790733  39.221445  5.509831  8.3097  -2.564555  -0.85204  0.921392  1.431296  -2.274541  2.567597  3.881068  -2.274541  2.567597  3.881068  -8.262256  19.686026  27.555431  -143.584058  85.349645  -63.536073  -54.589719  -3.986305  71.521102  49.168087  20.036551  24.519855  21.410592  -23.210356  12.77652  129.906297  69.541753  55.924691  -19.884672  -16.644632  -111.14482  77.121843  -3.656773  32.679184  0.099781  -6.475364  -2.271475  0.050598  -4.856973  -1.700726  
0.0  101.685394  0.0  -3.628471  25.763711  -102.354232  19.554685  -23.717136  -7.579142  -19.193092  15.59449  35.051138  6.465163  5.442025  2.691952  -20.712746  13.793267  -8.110074  -2.15242  5.606326  38.34726  5.887182  8.033333  -2.426606  -0.550265  0.832623  1.512249  -1.451897  2.309145  4.115927  -1.451897  2.309144  4.115927  -9.4577  19.131603  26.603251  -143.430277  84.08832  -65.80804  -52.792908  -2.097071  71.635228  47.773016  19.420915  23.006934  21.248197  -23.831282  12.824754  130.190313  68.316623  55.778046  -20.005606  -8.257663  -110.372072  74.571406  -2.122578  33.375383  0.480683  -6.15504  -2.593426  0.333963  -4.618418  -1.938338  
0.0  101.685394  0.0  -3.403503  21.621529  -102.418351  20.290042  -24.1094  -5.817058  -16.846496  14.486974  34.39778  6.573598  5.384668  2.883616  -18.840946  13.137554  -7.771412  -0.844897  5.5451  36.898352  6.479769  7.621098  -2.251516  -0.146327  0.736407  1.565454  -0.352214  2.021389  4.275766  -0.352214  2.021389  4.275766  -10.675062  18.066377  26.066732  -143.309656  82.772564  -68.004302  -50.279746  -1.417658  71.901836  45.698421  18.431745  21.34557  20.399233  -24.647689  13.193271  130.412969  66.66299  55.243864  -19.62388  2.603  -110.054303  71.664216  -1.457638  36.256194  0.841997  -5.749599  -2.803077  0.604532  -4.316174  -2.092599  
